# xmcd
#
# Track frame offsets: 
#        150
#        78759
#        118626
#        176965
#        227932
#        268010
#        298737
#
# Disc length: 4413 seconds
#
# Revision: 1
# Processed by: cddbd v1.5.2PL0 Copyright (c) Steve Scherf et al.
# Submitted via: ExactAudioCopy v0.99pb5
#
DISCID=62113b07
DTITLE=Thomas Chapin Trio - Ride
DYEAR=1996
DGENRE=Jazz
TTITLE0=Anima
TTITLE1=Pet Scorpion
TTITLE2=Night Bird Song
TTITLE3=Aeolus
TTITLE4=Bad Birdie
TTITLE5=Changes Two Tires
TTITLE6=Ticket To Ride
EXTD=
EXTT0=
EXTT1=
EXTT2=
EXTT3=
EXTT4=
EXTT5=
EXTT6=
PLAYORDER=
